<mxfile host="app.diagrams.net" modified="2023-03-13T15:20:53.065Z" agent="5.0 (X11)" etag="mKKN5qL_v3Ek9bZXjmeD" version="21.0.6" type="github">
  <diagram name="Page-1" id="qsmNHmDz7k1Fw8RlMPIP">
    <mxGraphModel dx="1434" dy="726" grid="1" gridSize="10" guides="1" tooltips="1" connect="1" arrows="1" fold="1" page="1" pageScale="1" pageWidth="850" pageHeight="1100" math="0" shadow="0">
      <root>
        <mxCell id="0" />
        <mxCell id="1" parent="0" />
        <mxCell id="-CHglVyJlBBeZ7MZ-OaF-1" value="" style="rounded=0;whiteSpace=wrap;html=1;" vertex="1" parent="1">
          <mxGeometry x="20" y="79" width="827" height="570" as="geometry" />
        </mxCell>
        <mxCell id="-CHglVyJlBBeZ7MZ-OaF-2" value="" style="edgeStyle=orthogonalEdgeStyle;rounded=0;orthogonalLoop=1;jettySize=auto;html=1;" edge="1" parent="1" source="-CHglVyJlBBeZ7MZ-OaF-3" target="-CHglVyJlBBeZ7MZ-OaF-5">
          <mxGeometry relative="1" as="geometry" />
        </mxCell>
        <mxCell id="-CHglVyJlBBeZ7MZ-OaF-3" value="&lt;font style=&quot;font-size: 36px;&quot;&gt;Home&lt;/font&gt;" style="rounded=0;whiteSpace=wrap;html=1;fillColor=#f5f5f5;strokeColor=#666666;fontColor=#333333;" vertex="1" parent="1">
          <mxGeometry x="50" y="110" width="170" height="90" as="geometry" />
        </mxCell>
        <mxCell id="-CHglVyJlBBeZ7MZ-OaF-4" value="&lt;font style=&quot;font-size: 36px;&quot;&gt;genomes&lt;/font&gt;" style="rounded=0;whiteSpace=wrap;html=1;fillColor=#f5f5f5;strokeColor=#666666;fontColor=#333333;" vertex="1" parent="1">
          <mxGeometry x="450" y="110" width="170" height="90" as="geometry" />
        </mxCell>
        <mxCell id="-CHglVyJlBBeZ7MZ-OaF-5" value="&lt;font style=&quot;font-size: 36px;&quot;&gt;database&lt;/font&gt;" style="rounded=0;whiteSpace=wrap;html=1;fillColor=#f5f5f5;strokeColor=#666666;fontColor=#333333;" vertex="1" parent="1">
          <mxGeometry x="250" y="110" width="170" height="90" as="geometry" />
        </mxCell>
        <mxCell id="-CHglVyJlBBeZ7MZ-OaF-6" value="&lt;font style=&quot;font-size: 36px;&quot;&gt;kmers&lt;/font&gt;" style="rounded=0;whiteSpace=wrap;html=1;fillColor=#f5f5f5;strokeColor=#666666;fontColor=#333333;" vertex="1" parent="1">
          <mxGeometry x="650" y="110" width="170" height="90" as="geometry" />
        </mxCell>
        <mxCell id="-CHglVyJlBBeZ7MZ-OaF-7" value="&lt;font style=&quot;font-size: 36px;&quot;&gt;SVM model&lt;/font&gt;" style="rounded=0;whiteSpace=wrap;html=1;fillColor=#f5f5f5;strokeColor=#666666;fontColor=#333333;" vertex="1" parent="1">
          <mxGeometry x="500" y="370" width="170" height="90" as="geometry" />
        </mxCell>
        <mxCell id="-CHglVyJlBBeZ7MZ-OaF-8" value="&lt;font style=&quot;font-size: 36px;&quot;&gt;cluster&lt;/font&gt;" style="rounded=0;whiteSpace=wrap;html=1;fillColor=#f5f5f5;strokeColor=#666666;fontColor=#333333;" vertex="1" parent="1">
          <mxGeometry x="200" y="370" width="170" height="90" as="geometry" />
        </mxCell>
        <mxCell id="-CHglVyJlBBeZ7MZ-OaF-9" value="" style="endArrow=classic;html=1;rounded=0;exitX=1;exitY=0.5;exitDx=0;exitDy=0;entryX=0;entryY=0.5;entryDx=0;entryDy=0;" edge="1" parent="1" source="-CHglVyJlBBeZ7MZ-OaF-3" target="-CHglVyJlBBeZ7MZ-OaF-5">
          <mxGeometry width="50" height="50" relative="1" as="geometry">
            <mxPoint x="140" y="330" as="sourcePoint" />
            <mxPoint x="190" y="280" as="targetPoint" />
          </mxGeometry>
        </mxCell>
        <mxCell id="-CHglVyJlBBeZ7MZ-OaF-10" value="" style="endArrow=classic;html=1;rounded=0;exitX=1;exitY=0.5;exitDx=0;exitDy=0;entryX=0;entryY=0.5;entryDx=0;entryDy=0;" edge="1" parent="1" source="-CHglVyJlBBeZ7MZ-OaF-5" target="-CHglVyJlBBeZ7MZ-OaF-4">
          <mxGeometry width="50" height="50" relative="1" as="geometry">
            <mxPoint x="230" y="165" as="sourcePoint" />
            <mxPoint x="260" y="165" as="targetPoint" />
          </mxGeometry>
        </mxCell>
        <mxCell id="-CHglVyJlBBeZ7MZ-OaF-11" value="" style="endArrow=classic;html=1;rounded=0;exitX=1;exitY=0.5;exitDx=0;exitDy=0;entryX=0;entryY=0.5;entryDx=0;entryDy=0;" edge="1" parent="1" source="-CHglVyJlBBeZ7MZ-OaF-4" target="-CHglVyJlBBeZ7MZ-OaF-6">
          <mxGeometry width="50" height="50" relative="1" as="geometry">
            <mxPoint x="430" y="165" as="sourcePoint" />
            <mxPoint x="530" y="235" as="targetPoint" />
          </mxGeometry>
        </mxCell>
        <mxCell id="-CHglVyJlBBeZ7MZ-OaF-12" value="" style="endArrow=classic;html=1;rounded=0;exitX=0.5;exitY=0;exitDx=0;exitDy=0;entryX=0.5;entryY=1;entryDx=0;entryDy=0;" edge="1" parent="1" source="-CHglVyJlBBeZ7MZ-OaF-8" target="-CHglVyJlBBeZ7MZ-OaF-6">
          <mxGeometry width="50" height="50" relative="1" as="geometry">
            <mxPoint x="220" y="310" as="sourcePoint" />
            <mxPoint x="270" y="260" as="targetPoint" />
          </mxGeometry>
        </mxCell>
        <mxCell id="-CHglVyJlBBeZ7MZ-OaF-13" value="" style="endArrow=classic;html=1;rounded=0;exitX=0.75;exitY=1;exitDx=0;exitDy=0;entryX=0.5;entryY=0;entryDx=0;entryDy=0;" edge="1" parent="1" source="-CHglVyJlBBeZ7MZ-OaF-6" target="-CHglVyJlBBeZ7MZ-OaF-7">
          <mxGeometry width="50" height="50" relative="1" as="geometry">
            <mxPoint x="295" y="380" as="sourcePoint" />
            <mxPoint x="745" y="210" as="targetPoint" />
          </mxGeometry>
        </mxCell>
        <mxCell id="-CHglVyJlBBeZ7MZ-OaF-14" value="" style="endArrow=classic;html=1;rounded=0;exitX=0.5;exitY=1;exitDx=0;exitDy=0;entryX=0.5;entryY=0;entryDx=0;entryDy=0;" edge="1" parent="1" source="-CHglVyJlBBeZ7MZ-OaF-5" target="-CHglVyJlBBeZ7MZ-OaF-7">
          <mxGeometry width="50" height="50" relative="1" as="geometry">
            <mxPoint x="230" y="165" as="sourcePoint" />
            <mxPoint x="260" y="165" as="targetPoint" />
          </mxGeometry>
        </mxCell>
        <mxCell id="-CHglVyJlBBeZ7MZ-OaF-15" value="" style="endArrow=classic;html=1;rounded=0;exitX=0.75;exitY=1;exitDx=0;exitDy=0;entryX=0.25;entryY=0;entryDx=0;entryDy=0;" edge="1" parent="1" source="-CHglVyJlBBeZ7MZ-OaF-3" target="-CHglVyJlBBeZ7MZ-OaF-7">
          <mxGeometry width="50" height="50" relative="1" as="geometry">
            <mxPoint x="230" y="165" as="sourcePoint" />
            <mxPoint x="260" y="165" as="targetPoint" />
          </mxGeometry>
        </mxCell>
        <mxCell id="-CHglVyJlBBeZ7MZ-OaF-16" value="" style="endArrow=classic;html=1;rounded=0;exitX=0.5;exitY=1;exitDx=0;exitDy=0;entryX=0.25;entryY=0;entryDx=0;entryDy=0;" edge="1" parent="1" source="-CHglVyJlBBeZ7MZ-OaF-3" target="-CHglVyJlBBeZ7MZ-OaF-8">
          <mxGeometry width="50" height="50" relative="1" as="geometry">
            <mxPoint x="188" y="210" as="sourcePoint" />
            <mxPoint x="530" y="443" as="targetPoint" />
          </mxGeometry>
        </mxCell>
        <mxCell id="-CHglVyJlBBeZ7MZ-OaF-17" value="" style="endArrow=classic;html=1;rounded=0;exitX=1;exitY=0.5;exitDx=0;exitDy=0;entryX=0;entryY=0.5;entryDx=0;entryDy=0;" edge="1" parent="1" source="-CHglVyJlBBeZ7MZ-OaF-8" target="-CHglVyJlBBeZ7MZ-OaF-7">
          <mxGeometry width="50" height="50" relative="1" as="geometry">
            <mxPoint x="295" y="380" as="sourcePoint" />
            <mxPoint x="745" y="210" as="targetPoint" />
          </mxGeometry>
        </mxCell>
        <mxCell id="-CHglVyJlBBeZ7MZ-OaF-18" value="&lt;div&gt;&lt;font style=&quot;font-size: 36px;&quot;&gt;abiotic&lt;/font&gt;&lt;/div&gt;&lt;div&gt;&lt;font style=&quot;font-size: 36px;&quot;&gt;factor&lt;/font&gt;&lt;/div&gt;" style="rounded=0;whiteSpace=wrap;html=1;fillColor=#f5f5f5;strokeColor=#666666;fontColor=#333333;" vertex="1" parent="1">
          <mxGeometry x="420" y="532.5" width="170" height="90" as="geometry" />
        </mxCell>
        <mxCell id="-CHglVyJlBBeZ7MZ-OaF-19" value="&lt;font style=&quot;font-size: 36px;&quot;&gt;bibliography&lt;/font&gt;" style="rounded=0;whiteSpace=wrap;html=1;fillColor=#f5f5f5;strokeColor=#666666;fontColor=#333333;" vertex="1" parent="1">
          <mxGeometry x="160" y="530" width="210" height="95" as="geometry" />
        </mxCell>
        <mxCell id="-CHglVyJlBBeZ7MZ-OaF-20" value="" style="endArrow=classic;html=1;rounded=0;exitX=1;exitY=0.5;exitDx=0;exitDy=0;entryX=0;entryY=0.5;entryDx=0;entryDy=0;" edge="1" parent="1" source="-CHglVyJlBBeZ7MZ-OaF-19" target="-CHglVyJlBBeZ7MZ-OaF-18">
          <mxGeometry width="50" height="50" relative="1" as="geometry">
            <mxPoint x="380" y="415" as="sourcePoint" />
            <mxPoint x="510" y="415" as="targetPoint" />
          </mxGeometry>
        </mxCell>
        <mxCell id="-CHglVyJlBBeZ7MZ-OaF-21" value="" style="endArrow=classic;html=1;rounded=0;exitX=0.5;exitY=0;exitDx=0;exitDy=0;entryX=0.5;entryY=1;entryDx=0;entryDy=0;" edge="1" parent="1" source="-CHglVyJlBBeZ7MZ-OaF-18" target="-CHglVyJlBBeZ7MZ-OaF-7">
          <mxGeometry width="50" height="50" relative="1" as="geometry">
            <mxPoint x="380" y="425" as="sourcePoint" />
            <mxPoint x="510" y="425" as="targetPoint" />
          </mxGeometry>
        </mxCell>
      </root>
    </mxGraphModel>
  </diagram>
</mxfile>
